<?xml version="1.0" standalone="no"?>
<!DOCTYPE svg PUBLIC "-//W3C//DTD SVG 20010904//EN"
 "http://www.w3.org/TR/2001/REC-SVG-20010904/DTD/svg10.dtd">
<svg version="1.0" xmlns="http://www.w3.org/2000/svg"
 width="180.000000pt" height="180.000000pt" viewBox="0 0 180.000000 180.000000"
 preserveAspectRatio="xMidYMid meet">
<metadata>
Created by potrace 1.14, written by Peter Selinger 2001-2017
</metadata>
<g transform="translate(0.000000,180.000000) scale(0.100000,-0.100000)"
fill="#000000" stroke="none">
<path d="M1108 1760 c-2 -22 -3 -103 -3 -180 0 -84 -4 -142 -10 -144 -6 -3 -5
-8 3 -14 10 -7 10 -16 2 -38 -27 -74 -195 -454 -200 -454 -3 0 -51 103 -106
230 l-99 230 -127 0 -128 0 0 -495 0 -495 126 0 126 0 -4 230 c-2 127 -3 230
-2 230 0 0 29 -72 64 -160 l63 -161 89 3 90 3 38 98 c21 55 40 100 42 102 3 3
2 -112 -7 -553 l-3 -192 369 0 369 0 0 900 0 900 -344 0 -344 0 -4 -40z m252
-865 l0 -495 -125 0 -126 0 6 118 c23 495 36 737 41 800 l6 72 99 0 99 0 0
-495z"/>
</g>
</svg>
